<svg version="1.1" id="svg2" xmlns="http://www.w3.org/2000/svg" xmlns:xlink="http://www.w3.org/1999/xlink" x="0" y="0" viewBox="0 0 253.8 271.3" xml:space="preserve"><style>.st1{fill:#155f00}.st2{fill:#292f33}.st4{fill:#c1694f}.st10{fill:#662113}.st14{fill:none;stroke:#000;stroke-width:.3}</style><g id="g10" transform="matrix(1.25 0 0 -1.25 0 45)"><g id="g12"><defs><path id="SVGID_1_" d="M-102.2-284h421.9v421.9h-421.9z"/></defs><clipPath id="SVGID_2_"><use xlink:href="#SVGID_1_" overflow="visible"/></clipPath><g id="g14" clip-path="url(#SVGID_2_)"><g id="g20" transform="translate(26 8)"><path id="path22" class="st1" d="M131.4-141.1H34.8c-15 0-27.6-9-33-22.2-2.4 2.4-5.4 4.2-9 4.2-6.6 0-12-5.4-12-12v-18h186v12c0 19.8-16.2 36-35.4 36"/></g><g id="g24" transform="translate(14 9)"><path id="path26" class="st1" d="M70.8-136.1h48s6-54-24-54-24 54-24 54"/></g><g id="g28" transform="translate(33 16.976)"><path id="path30" class="st2" d="M165.8-96.2c0-11.4-40.2-21-90-21s-90 9.6-90 21 40.2 21 90 21 90-9.6 90-21"/></g><g id="g32" transform="translate(26.34 18.437)"><path id="path34" d="M132.5-88.9c-4.8 21.6-25.2 51.6-49.8 51.6s-45-30.6-49.8-51.6c-4.8 0-9-3-9-11.4s4.2-15.6 9.6-15.6c6.6-26.4 25.8-48 49.2-48s42.6 21.6 49.2 48c5.4 0 9.6 7.2 9.6 15.6s-4.2 11.4-9 11.4" fill="#ffdc72"/></g><g id="g44" transform="translate(18.75 14.176)"><path id="path46" class="st4" d="M94.6-110.2h-9c-2.4 0-4.8 1.8-4.8 4.8 0 2.4 1.8 4.8 4.8 4.8h9c2.4 0 4.8-1.8 4.8-4.8-.1-3-2.5-4.8-4.8-4.8"/></g><g id="g48" transform="translate(20.167 10.967)"><path id="path50" class="st4" d="M101.6-126.2H75.8c-2.4 0-4.8 1.8-4.8 4.8v1.8c0 2.4 1.8 4.8 4.8 4.8h25.8c2.4 0 4.8-1.8 4.8-4.8v-2.4c0-2.4-2.4-4.2-4.8-4.2"/></g><g id="g52" transform="translate(20.667 10.13)"><path id="path54" d="M104.1-130.4c-11.4 7.8-16.2 5.4-16.2 5.4s-4.2 2.4-15.6-5.4c-6-4.2-12 1.2-16.2 6.6 4.2 1.8 10.2 3.6 16.2 4.8 10.8 0 15 1.2 16.2 3.6.6-2.4 4.8-3.6 15.6-3.6 6-1.2 12-3.6 16.2-5.4-4.2-4.8-10.2-10.2-16.2-6m34.8 48c1.2.6 1.8 1.2 2.4 2.4 2.4 4.2-1.2 11.4-8.4 15.6s-15 4.2-17.4 0 1.2-11.4 8.4-15c3-1.8 6.6-3 9-3-1.8-3.6-3-9.6-3-16.2s1.2-12 3-15c-2.4 0-6-2.4-7.8-4.8-4.2 4.8-10.8 9.6-18.6 10.8-12.6 2.4-17.4-2.4-18.6-5.4-1.2 3-6 7.8-18.6 5.4-7.8-1.2-14.4-6-18.6-10.8-1.8 2.4-5.4 4.2-7.8 4.2 1.8 3 3 9 3 15 0 6.6-1.2 12.6-3 15.6 3.6-.6 7.8.6 12 3 7.2 4.2 10.8 10.8 8.4 15s-10.2 4.2-17.4 0-10.8-10.8-8.4-15c.6-.6.6-1.2 1.2-1.2-2.4-2.4-4.2-9-4.2-17.4 0-10.2 2.4-18 6-18h.6c0-.6-.6-1.8-.6-3-.6-10.2 3.6-10.2 3.6-10.2-4.2-10.8 4.2-22.2 4.2-22.2 0-16.2 12-16.2 12-16.2 0-16.2 16.2-10.8 16.2-10.8 4.2-5.4 12-5.4 12-5.4s7.8 0 12 5.4c0 0 16.2-5.4 16.2 10.8 0 0 12 0 12 16.2 0 0 7.8 10.8 4.2 22.2 0 0 4.2 0 4.2 10.8 0 1.2 0 2.4-.6 3h.6c3.6 0 6 7.8 6 18-1.2 7.2-2.4 13.2-4.2 16.2" fill="#b4b69d"/></g><g id="g56" transform="translate(25.765 20.843)"><path id="path58" class="st1" d="M129.6-76.8c-7.2 16.2-42 91.2-46.8 91.2s-39-75-46.8-91.2C7.2-81.6-7.2-91.2-7.2-99.6c36 12 66 14.4 90 14.4s54-2.4 90-14.4c0 8.4-14.4 18-43.2 22.8"/></g><g id="g60" transform="translate(5)"><path id="path62" d="M25.8-181.1h-12v144.6l-6 23.4h24l-6-23.4v-144.6z" fill="#a07351"/></g><g id="g64" transform="translate(7 30)"><path id="path66" d="M35.8-31.1c0-10.2-7.8-18-18-18s-18 7.8-18 18 7.8 18 18 18 18-7.8 18-18" fill="#48a35a"/></g><g id="g68" transform="translate(5 30.5)"><path id="path70" d="M25.8-28.6c0-4.8-4.2-9-9-9s-9 4.2-9 9 4.2 9 9 9 9-4.2 9-9" fill="#a9d5ab"/></g><g id="g72" transform="translate(7 5.5)"><path id="path74" d="M35.8-153.6c0-11.4-7.8-21-18-21s-18 9.6-18 21 7.8 15 18 15 18-3.6 18-15" fill="#ffdc5d"/></g></g></g><path class="st10" d="M95-74.9c-7.2 1.2-14.4-.6-19.8-5.4-.6-.6-3.6 1.8-2.4 3 6 5.4 14.4 7.8 22.8 6 1.2-.6 0-4.2-.6-3.6M139.4-80.3c-5.4 4.8-12.6 6.6-19.8 5.4-1.2 0-1.8 3.6-.6 3.6 7.8 1.8 16.2-.6 22.8-6 1.2-1.2-1.8-3.6-2.4-3M137-84.5c-1.8 4.2-4.8 6-7.8 6s-6-1.8-7.8-6c0-.6.6-1.2 1.2-.6 1.8 1.2 4.2 1.8 6.6 1.8 2.4 0 4.8-.6 6.6-1.8.6-.6 1.8 0 1.2.6M80-84.5c0-.6 1.2-1.2 1.2-.6 1.8 1.2 4.2 1.8 6.6 1.8s4.8-.6 6.6-1.8c.6-.6 1.8 0 1.2.6-1.8 4.2-4.8 6-7.8 6s-6-1.8-7.8-6"/></g><path class="st2" d="M53.8 229.9c0-4.2-.6-7.2-3-10.8 0 0 4.5-3.8 11-5.9 3.1-1.1 2.6-.9 5.6-1.6 3.1-.3 3.8-.2 6.2-.2-1.8 1.3-3.7 2.9-5.5 4.1-2.4 1.8-3 3-4.8 4.8-3 3.6-6 9-10.2 14.4"/><path d="M147.4 86c-.6-.2-1.3-.4-2-.5-.7-.1-1.5-.3-2.3-.4-.8-.1-1.6-.2-2.3-.3-.8-.1-1.5-.1-2.1-.2h-2.5c-.2 0-.3.1-.3.2 0 1 .1 2.1.2 3.3.1 1.3.2 2.5.3 3.8.1 1.3.2 2.4.4 3.5.1 1.1.3 1.9.5 2.3.1.3.5.5 1.3.7.7.2 1.6.3 2.5.3.4 0 .8 0 1.2.1.4 0 .9 0 1.4.1.5 0 1 .2 1.3.4.3.2.5.4.5.7v.8c0 .2-.6.3-1.6.2-.4 0-1-.1-1.9-.2-.9-.1-1.8-.2-2.8-.3-1-.1-2.1-.1-3.2-.1s-2.1 0-2.9.1c-2 .2-3.9.6-5.7 1-1.8.4-3.4.8-4.9 1.3-1.5.4-2.8.9-3.8 1.3-1.1.4-1.8.8-2.3 1.2-.2.2-.4.3-.5.3h-.4c-.1 0-.4-.1-.7-.2-.4-.2-.5-.4-.5-.7 0-.2.5-.5 1.5-.9.9-.4 2-.8 3.3-1.3 1.2-.4 2.5-.9 3.8-1.2 1.3-.4 2.4-.7 3.3-.9.3-.3.5-1 .8-2.2.3-1.2.5-2.9.8-5.2.3-2.3.5-5.1.8-8.6.3-3.4.5-7.5.8-12.3.1-1.3.1-2.7.1-4v-3.8c0-1.2 0-2.2-.1-3.1-.1-.9-.2-1.5-.3-1.8-.1-.2-.4-.4-.8-.4-.4-.1-.8 0-1.3 0-.7.1-1 .1-1.7.2-.1 0-.3 0-.5.1h-.6c-.2 0-.3-.1-.5-.2-.1-.1-.2-.2-.1-.4.1-.4.1-.7.2-.9.1-.2.5-.3 1.2-.4.3 0 .6-.1 1-.1s.8-.1 1.2-.1c.4 0 .8-.1 1.3-.1.4 0 .8 0 1.1-.1.9-.1 1.9-.3 3.2-.5 1.3-.3 2.6-.4 3.9-.5 1 0 2 0 3 .1s2 .2 2.9.3c.9.1 1.7.2 2.4.3.7.1 1.1.1 1.4.1 0-1 0-1.9.2-2.6.1-.7.3-1.1.6-1 .1 0 .3.1.6.3.3.2.4.4.5.6 0 .1-.1.2-.1.3 0 .2-.1.4 0 .5-.1.7-.1 1.7-.1 2.9.1 1.2.1 2.4.3 3.7.1 1.3.3 2.5.5 3.8.2 1.2.5 2.3.8 3.1 0 .5-.1.8-.4.7-.5-.1-.9-.3-1-.5-.2-.2-.2-.5-.2-.7 0-.3 0-.7-.1-1.1-.1-.5-.1-.8-.2-1.1-.2-.9-.6-1.7-1.3-2.5-.6-.7-1.4-1.4-2.3-1.9-.9-.5-1.8-1-2.9-1.3-1.1-.3-2.2-.5-3.4-.6h-1.3c-.5 0-.9.2-1.1.4 0 .3-.1.9-.1 1.9v3.4c0 1.3 0 2.7.1 4.2 0 1.5.1 2.9.1 4.3s.1 2.7.1 3.8c0 1.1.1 2 .1 2.5.8.1 1.5.1 2.2.1.7 0 1.4.1 2.1.1 2.3.2 4.4.3 6.1.4 1.7.1 2.9.1 3.4 0 .3-.1.6-.2.7-.3.2-.2.3-.4.4-.6.1-.2.2-.4.3-.5.1-.1.2-.2.4-.2s.4.2.6.4c.2.2.3.4.3.5-.1.4-.2.9-.2 1.6 0 .7 0 1.5.1 2.3l.3 2.7c.1.9.3 1.8.5 2.6 0 .2.1.3.1.5.1.2.1.3.2.5 0 .1-.1.2-.2.2h-.6c-.2 0-.4-.1-.6-.1-.2-.1-.3-.2-.3-.3-.1-.2-.1-.5-.3-.8-.1-.3-.3-.6-.5-1-.2-.3-.5-.6-.9-1-.4-.3-.9-.6-1.4-.9-.5.1-.7 0-1.1-.1z" fill="#5ecb42"/><path fill="none" d="M271 263.5H1"/><path class="st2" d="M196.6 211.3c6.6 4.8 16.2 14.4 25.2 30 6.6 11.4 7.2 22.2 7.8 30H241v-15.6c0-4.8-1.2-13.8-6-22.2-10.2-17.4-27-21-30.6-21.6-2.4-.6-4.8-.6-7.8-.6z"/></svg>